<?xml version="1.0" encoding="UTF-8"?>
<svg xmlns="http://www.w3.org/2000/svg" id="Calque_2" viewBox="0 0 273.28 78.61">
  <defs>
    <style>.cls-1{fill:#fff;stroke-width:0px;}</style>
  </defs>
  <g id="Layer_1">
    <path class="cls-1" d="m257.04,57.17c-.06-.07-.17-.08-.24-.02-1.75,1.46-3.54,2.08-5.33,1.85-2.12-.28-3.77-1.64-4.35-2.5-2.39-3.47-3.21-9.31-2.5-17.03,4.62.69,9.29,1.05,13.98,1.05.1,0,.17-.08.17-.17v-7.08c-.01-.09-.09-.17-.18-.17-4.34,0-8.66-.34-12.93-.98.69-3.71,1.64-7.72,2.87-12.01.03-.09-.03-.19-.12-.21l-6.81-1.96c-.09-.03-.19.03-.21.12-1.3,4.52-2.3,8.73-3.03,12.66-3.74-.88-7.42-2.01-11.01-3.38.74-6.23,2.42-11.18,5.05-14.75,1.42-1.93,4.68-4.18,8.47-4.55,3.47-.34,6.84.94,10.01,3.8.07.06.18.06.24,0l5.17-5.65c.06-.07.06-.18-.01-.25C250.15.4,244.1-.3,240.1.09c-6.68.65-11.79,4.59-14.13,7.76-3.08,4.18-5.15,9.59-6.2,16.2-1.27-.62-2.52-1.27-3.76-1.95l-15.01-8.31c-.08-.05-.19-.02-.23.07l-3.43,6.2c-.05.08-.02.19.07.23l15.01,8.31c2.16,1.19,4.36,2.29,6.6,3.31-.09,2.26-.09,4.63,0,7.1,0,0,0,.01,0,.02.14,11.66-8.39,22.19-18.97,23.52-2.84.36-5.31-.16-7.27-1.44.21-.12.41-.25.61-.38,3.09-1.99,12.48-9.76,15.3-15.44,2.03-4.09,1.48-8.62-1.42-11.85-3.29-3.65-8.73-4.66-14.19-2.62-9.29,3.47-14.77,14.48-12.48,25.07.07.33.15.66.24.98.03.1-.04.2-.14.21-2.69.45-5.42.41-7.65-.34-.88-.3-1.71-.69-2.48-1.17.05-.09.09-.18.14-.26,5.62-10.89,8.88-24.76,8.51-36.2-.07-2.3-.36-5.3-1.97-8.02-1.99-3.38-5.58-5.32-9.1-4.92-1.63.18-3.24.85-4.79,1.99-4.12,3.03-5.89,7.78-6.87,11.1-2.8,9.49-2.76,19.93.1,29.4.94,3.12,2.24,5.84,3.88,8.14.04.06.04.13,0,.19-4.09,6.12-9.14,10.67-16.12,14.64-.08.05-.11.15-.07.23l3.77,6.66c.05.08.15.11.24.06,7.72-4.39,13.42-9.4,18.06-16.01.05-.07.15-.09.22-.05,1.22.74,2.52,1.34,3.91,1.81,4.33,1.47,9.43,1.27,14.06.11.06-.02.13,0,.17.05,3.82,4.54,9.68,6.82,16.34,5.99,8.24-1.03,15.42-5.82,20.11-12.6.92,5.24,2.12,10.81,3.61,16.71.02.09.12.15.21.13l7.42-1.88c.09-.02.15-.12.12-.21-3.74-14.78-5.6-27.38-5.59-37.53,3.39,1.19,6.85,2.2,10.36,3.01-1.01,9.97.23,17.55,3.72,22.62,1.54,2.23,4.96,5.05,9.51,5.65.55.07,1.16.11,1.82.11,2.59-.02,5.9-.82,9.3-3.68.07-.06.08-.17.02-.25l-4.61-5.38Zm-91.84-8.93c-.06.14-.27.14-.32,0-.24-.6-.46-1.24-.66-1.9-2.42-8-2.45-16.81-.08-24.82.37-1.24.8-2.47,1.37-3.64.68-1.37,1.65-3,3.12-3.64.14-.06.27-.09.4-.09.53-.01.98.51,1.25.92.28.43.45.93.58,1.42.24.94.31,1.92.34,2.88.29,9.01-1.98,19.75-6,28.87Zm23.24,6.15c-.01-.06-.03-.12-.04-.17-1.45-6.68,1.9-13.81,7.46-15.88,1-.38,1.89-.53,2.65-.54,1.33-.01,2.28.44,2.8,1.02.69.76.76,1.81.2,2.93-1.69,3.41-9.3,10.23-12.47,12.27-.19.13-.4.25-.61.37Z"></path>
    <path class="cls-1" d="m267.32,49.34c-3.33.03-6.02,2.37-5.99,5.63.03,3.33,2.77,5.61,6.1,5.58,3.19-.03,5.89-2.37,5.85-5.69-.03-3.26-2.77-5.54-5.96-5.51Z"></path>
    <polygon class="cls-1" points="0 39.01 13.67 39.01 13.67 65.58 22.84 65.58 22.84 39.01 36.51 39.01 36.51 30.34 0 30.34 0 39.01"></polygon>
    <rect class="cls-1" x="41.45" y="30.34" width="9.02" height="35.24"></rect>
    <path class="cls-1" d="m98.67,29.35c-5.22,0-9.37,2.96-11.63,6.48-2.18-3.95-5.78-6.48-10.29-6.48-4.16,0-7.54,2.11-9.73,5.5v-4.51h-8.81v35.24h8.81v-19.1c0-5.36,2.89-8.74,6.84-8.74s6.63,3.38,6.63,8.74v19.1h8.81v-19.1c0-5.36,2.96-8.74,6.98-8.74s6.55,3.38,6.55,8.74v19.1h8.81v-20.58c0-8.74-5.15-15.65-12.97-15.65Z"></path>
    <path class="cls-1" d="m45.99,16.14c-3.33,0-6.04,2.31-6.04,5.57s2.72,5.64,6.04,5.64,5.91-2.31,5.91-5.64-2.72-5.57-5.91-5.57Z"></path>
    <path class="cls-1" d="m148.59,57.6l-6.63-4.33h0c-1.06,1.75-2.74,3.24-4.92,4.18-4.15,1.78-7.87.61-10.52-3.08l22.8-9.78c-.69-2.31-1.55-4.32-2.49-5.99-5.09-9.01-13.65-11.09-21.3-7.81-9.46,4.06-12.74,14.28-8.63,23.87,4.11,9.59,13.85,14.23,23.18,10.23,3.54-1.52,6.53-4.14,8.52-7.28Zm-20.16-19.32c3.76-1.61,8.03-.76,10.19,3.37l-14.83,6.36c-.95-4.35.5-7.96,4.64-9.74Z"></path>
  </g>
</svg>
